<svg width="121" height="24" viewBox="0 0 121 24" fill="none" xmlns="http://www.w3.org/2000/svg">
<path d="M12.875 0C14.8397 0.0595371 15.2313 0.12363 15.1816 0.148438L20.3916 1.5625C23.5471 2.27695 23.9891 3.5974 23.8154 4.16797V15.1074C23.8154 17.7264 22.6248 18.4319 22.0293 18.457L10.2705 23.3682C9.19896 23.9635 8.13726 23.6162 7.74023 23.3682C5.55787 22.4258 1.07432 20.4823 0.595703 20.2432C0.119404 20.005 0 19.1014 0 18.6797V5.65625C0 4.76319 0.843902 4.54004 1.26562 4.54004H3.7207C4.55358 4.59953 4.66359 4.3169 4.61426 4.16797L4.46484 1.19043C4.52447 0.238255 5.1349 9.20334e-05 5.43262 0H12.875ZM13.3955 3.34863C13.2218 3.32396 12.9048 3.37882 13.0234 3.79492V6.77246C12.9985 7.0951 12.8002 7.75494 12.2051 7.81445H8.78125C8.65707 7.81476 8.4092 7.91882 8.40918 8.33496V20.3916C8.38453 20.7389 8.63304 21.3286 9.82324 20.9121C11.014 20.4953 17.7624 17.8115 20.9873 16.5215C21.2603 16.521 21.791 16.1037 21.7314 14.4375V4.09277C21.7809 3.86945 21.7011 3.40829 20.9873 3.34863H13.3955Z" fill="url(#paint0_linear_458_2)"/>
<path d="M14.2891 14.0713V11.0928C14.2891 10.901 14.4679 10.7592 14.6547 10.803L18.3205 11.6621C18.583 11.7237 18.635 12.0747 18.4015 12.2097L14.7357 14.329C14.5373 14.4437 14.2891 14.3005 14.2891 14.0713Z" fill="url(#paint1_linear_458_2)"/>
<path d="M35.2422 9.53657C35.1837 9.04293 34.9467 8.65971 34.531 8.38691C34.1153 8.11412 33.6054 7.97772 33.0014 7.97772C32.5597 7.97772 32.1732 8.04916 31.842 8.19206C31.514 8.33495 31.2574 8.53143 31.0723 8.7815C30.8904 9.03156 30.7995 9.31573 30.7995 9.63399C30.7995 9.9003 30.8628 10.1293 30.9895 10.3209C31.1194 10.5092 31.285 10.6667 31.4864 10.7934C31.6877 10.9168 31.8988 11.0191 32.1196 11.1003C32.3405 11.1782 32.5434 11.2416 32.7286 11.2903L33.7418 11.5631C34.0016 11.6313 34.2907 11.7255 34.6089 11.8456C34.9304 11.9658 35.2373 12.1298 35.5296 12.3376C35.8252 12.5422 36.0687 12.8053 36.2603 13.1268C36.4519 13.4483 36.5477 13.8429 36.5477 14.3105C36.5477 14.8496 36.4065 15.3368 36.1239 15.772C35.8446 16.2071 35.4354 16.553 34.8963 16.8096C34.3605 17.0661 33.7093 17.1944 32.9429 17.1944C32.2284 17.1944 31.6098 17.0791 31.0869 16.8485C30.5673 16.618 30.1581 16.2965 29.8593 15.884C29.5638 15.4716 29.3965 14.9925 29.3575 14.4469H30.6046C30.6371 14.8237 30.7638 15.1354 30.9846 15.3823C31.2087 15.6258 31.4912 15.8077 31.8322 15.9278C32.1765 16.0448 32.5467 16.1032 32.9429 16.1032C33.4041 16.1032 33.8181 16.0285 34.1851 15.8791C34.5521 15.7265 34.8428 15.5154 35.0571 15.2459C35.2714 14.9731 35.3786 14.6548 35.3786 14.2911C35.3786 13.9598 35.286 13.6903 35.1009 13.4824C34.9158 13.2746 34.6723 13.1057 34.3702 12.9758C34.0682 12.8459 33.7418 12.7322 33.3911 12.6348L32.1635 12.284C31.3841 12.06 30.767 11.7401 30.3123 11.3244C29.8577 10.9087 29.6303 10.3647 29.6303 9.69245C29.6303 9.13386 29.7814 8.64672 30.0834 8.23103C30.3887 7.81209 30.7979 7.48733 31.311 7.25675C31.8274 7.02292 32.4038 6.90601 33.0403 6.90601C33.6834 6.90601 34.2549 7.0213 34.7551 7.25188C35.2552 7.47921 35.6514 7.79098 35.9437 8.18719C36.2392 8.58339 36.3951 9.03319 36.4113 9.53657H35.2422ZM40.0734 17.019L37.7936 9.53657H39.0017L40.619 15.2653H40.697L42.2948 9.53657H43.5224L45.1007 15.2459H45.1787L46.796 9.53657H48.0041L45.7242 17.019H44.5941L42.9573 11.2708H42.8404L41.2036 17.019H40.0734ZM49.5239 17.019V9.53657H50.6736V17.019H49.5239ZM50.1085 8.28949C49.8844 8.28949 49.6912 8.21317 49.5288 8.06053C49.3697 7.90789 49.2901 7.7244 49.2901 7.51006C49.2901 7.29572 49.3697 7.11223 49.5288 6.95959C49.6912 6.80696 49.8844 6.73064 50.1085 6.73064C50.3326 6.73064 50.5242 6.80696 50.6833 6.95959C50.8457 7.11223 50.9269 7.29572 50.9269 7.51006C50.9269 7.7244 50.8457 7.90789 50.6833 8.06053C50.5242 8.21317 50.3326 8.28949 50.1085 8.28949ZM56.0334 9.53657V10.5108H52.1557V9.53657H56.0334ZM53.2859 7.74389H54.4355V14.8756C54.4355 15.2004 54.4826 15.444 54.5768 15.6063C54.6742 15.7655 54.7976 15.8726 54.947 15.9278C55.0997 15.9798 55.2604 16.0058 55.4293 16.0058C55.556 16.0058 55.6599 15.9993 55.7411 15.9863C55.8223 15.9701 55.8872 15.9571 55.9359 15.9473L56.1698 16.9801C56.0918 17.0093 55.983 17.0385 55.8434 17.0678C55.7037 17.1002 55.5267 17.1165 55.3124 17.1165C54.9876 17.1165 54.6694 17.0466 54.3576 16.907C54.0491 16.7674 53.7925 16.5546 53.5879 16.2688C53.3866 15.9831 53.2859 15.6226 53.2859 15.1874V7.74389ZM60.7221 17.1749C60.0206 17.1749 59.4165 17.0093 58.9099 16.678C58.4033 16.3468 58.0136 15.8905 57.7408 15.3092C57.468 14.7279 57.3316 14.0637 57.3316 13.3168C57.3316 12.5568 57.4712 11.8862 57.7505 11.3049C58.0331 10.7203 58.426 10.264 58.9294 9.93602C59.436 9.60477 60.0271 9.43914 60.7026 9.43914C61.2287 9.43914 61.7029 9.53657 62.125 9.73142C62.5472 9.92628 62.8931 10.1991 63.1627 10.5498C63.4322 10.9006 63.5995 11.3098 63.6644 11.7774H62.5148C62.4271 11.4364 62.2322 11.1344 61.9302 10.8713C61.6314 10.605 61.2287 10.4719 60.7221 10.4719C60.2739 10.4719 59.881 10.5888 59.5432 10.8226C59.2087 11.0532 58.9473 11.3796 58.7589 11.8018C58.5738 12.2207 58.4812 12.7127 58.4812 13.2778C58.4812 13.8559 58.5722 14.3593 58.754 14.7879C58.9391 15.2166 59.199 15.5495 59.5335 15.7866C59.8712 16.0237 60.2674 16.1422 60.7221 16.1422C61.0209 16.1422 61.292 16.0902 61.5356 15.9863C61.7792 15.8824 61.9854 15.733 62.1543 15.5381C62.3232 15.3433 62.4433 15.1095 62.5148 14.8367H63.6644C63.5995 15.2783 63.4387 15.6762 63.1821 16.0301C62.9288 16.3809 62.5927 16.6602 62.1738 16.868C61.7581 17.0726 61.2742 17.1749 60.7221 17.1749ZM66.4947 12.5179V17.019H65.345V7.04241H66.4947V10.7057H66.5921C66.7675 10.3192 67.0306 10.0123 67.3813 9.78501C67.7353 9.55443 68.2062 9.43914 68.794 9.43914C69.3039 9.43914 69.7504 9.54144 70.1336 9.74604C70.5169 9.94739 70.814 10.2575 71.0251 10.6765C71.2394 11.0922 71.3466 11.6215 71.3466 12.2646V17.019H70.197V12.3425C70.197 11.7482 70.0427 11.2886 69.7342 10.9639C69.4289 10.6359 69.0051 10.4719 68.4627 10.4719C68.086 10.4719 67.7483 10.5514 67.4495 10.7106C67.154 10.8697 66.9201 11.1019 66.748 11.4072C66.5791 11.7125 66.4947 12.0827 66.4947 12.5179ZM76.587 17.1749C75.8661 17.1749 75.2441 17.0158 74.7213 16.6975C74.2017 16.376 73.8006 15.9278 73.518 15.353C73.2388 14.7749 73.0991 14.1027 73.0991 13.3363C73.0991 12.5698 73.2388 11.8943 73.518 11.3098C73.8006 10.7219 74.1935 10.264 74.6969 9.93602C75.2035 9.60477 75.7946 9.43914 76.4701 9.43914C76.8598 9.43914 77.2447 9.50409 77.6246 9.63399C78.0046 9.7639 78.3505 9.97499 78.6622 10.2673C78.974 10.5563 79.2225 10.9395 79.4076 11.4169C79.5927 11.8943 79.6852 12.4821 79.6852 13.1804V13.6675H73.9175V12.6738H78.5161C78.5161 12.2516 78.4317 11.8748 78.2628 11.5436C78.0972 11.2123 77.8601 10.9509 77.5516 10.7593C77.2463 10.5677 76.8858 10.4719 76.4701 10.4719C76.0122 10.4719 75.616 10.5855 75.2815 10.8129C74.9502 11.037 74.6953 11.3292 74.5167 11.6897C74.3381 12.0502 74.2488 12.4367 74.2488 12.8491V13.5116C74.2488 14.0767 74.3462 14.5557 74.541 14.9487C74.7391 15.3384 75.0136 15.6356 75.3643 15.8402C75.715 16.0415 76.1226 16.1422 76.587 16.1422C76.8891 16.1422 77.1619 16.1 77.4054 16.0155C77.6522 15.9278 77.865 15.7979 78.0436 15.6258C78.2222 15.4505 78.3602 15.2329 78.4576 14.9731L79.5683 15.2848C79.4514 15.6615 79.2549 15.9928 78.9789 16.2786C78.7028 16.5611 78.3618 16.782 77.9559 16.9411C77.5499 17.097 77.0937 17.1749 76.587 17.1749ZM84.2595 17.1749C83.6359 17.1749 83.0855 17.0174 82.6081 16.7024C82.1307 16.3841 81.7572 15.936 81.4877 15.3579C81.2181 14.7766 81.0833 14.0897 81.0833 13.2973C81.0833 12.5114 81.2181 11.8294 81.4877 11.2513C81.7572 10.6732 82.1323 10.2267 82.613 9.91166C83.0936 9.59665 83.6489 9.43914 84.279 9.43914C84.7661 9.43914 85.151 9.52033 85.4335 9.68271C85.7193 9.84184 85.9369 10.0237 86.0863 10.2283C86.2389 10.4297 86.3574 10.5953 86.4419 10.7252H86.5393V7.04241H87.689V17.019H86.5783V15.8694H86.4419C86.3574 16.0058 86.2373 16.1779 86.0814 16.3858C85.9255 16.5904 85.703 16.7738 85.414 16.9362C85.125 17.0954 84.7401 17.1749 84.2595 17.1749ZM84.4154 16.1422C84.8765 16.1422 85.2662 16.022 85.5845 15.7817C85.9028 15.5381 86.1447 15.202 86.3104 14.7733C86.476 14.3414 86.5588 13.8429 86.5588 13.2778C86.5588 12.7192 86.4776 12.2305 86.3152 11.8115C86.1528 11.3893 85.9125 11.0613 85.5943 10.8275C85.276 10.5904 84.883 10.4719 84.4154 10.4719C83.9282 10.4719 83.5223 10.5969 83.1975 10.847C82.876 11.0938 82.6341 11.4299 82.4717 11.8554C82.3126 12.2775 82.233 12.7517 82.233 13.2778C82.233 13.8104 82.3142 14.2943 82.4766 14.7295C82.6422 15.1614 82.8858 15.5057 83.2073 15.7622C83.532 16.0155 83.9347 16.1422 84.4154 16.1422ZM90.792 17.097C90.5517 17.097 90.3455 17.0109 90.1734 16.8388C90.0013 16.6667 89.9152 16.4605 89.9152 16.2201C89.9152 15.9798 90.0013 15.7736 90.1734 15.6015C90.3455 15.4293 90.5517 15.3433 90.792 15.3433C91.0324 15.3433 91.2386 15.4293 91.4107 15.6015C91.5828 15.7736 91.6689 15.9798 91.6689 16.2201C91.6689 16.3793 91.6283 16.5254 91.5471 16.6586C91.4692 16.7917 91.3636 16.8989 91.2305 16.9801C91.1006 17.058 90.9544 17.097 90.792 17.097ZM97.064 9.53657V10.5108H93.0305V9.53657H97.064ZM94.2386 17.019V8.50383C94.2386 8.07514 94.3392 7.71791 94.5406 7.43212C94.7419 7.14633 95.0034 6.93199 95.3249 6.78909C95.6464 6.6462 95.9858 6.57475 96.343 6.57475C96.6255 6.57475 96.8561 6.59749 97.0347 6.64295C97.2134 6.68842 97.3465 6.73064 97.4342 6.76961L97.1029 7.76338C97.0445 7.74389 96.9633 7.71953 96.8594 7.6903C96.7587 7.66108 96.6255 7.64646 96.4599 7.64646C96.08 7.64646 95.8055 7.74227 95.6367 7.93387C95.471 8.12548 95.3882 8.4064 95.3882 8.77663V17.019H94.2386ZM103.391 13.9598V9.53657H104.54V17.019H103.391V15.7525H103.313C103.137 16.1324 102.865 16.4556 102.494 16.7219C102.124 16.9849 101.656 17.1165 101.091 17.1165C100.624 17.1165 100.208 17.0142 99.8443 16.8096C99.4806 16.6017 99.1948 16.29 98.987 15.8743C98.7791 15.4553 98.6752 14.9276 98.6752 14.2911V9.53657H99.8248V14.2131C99.8248 14.7587 99.9775 15.1939 100.283 15.5187C100.591 15.8434 100.984 16.0058 101.462 16.0058C101.747 16.0058 102.038 15.9327 102.334 15.7866C102.632 15.6404 102.882 15.4164 103.084 15.1143C103.288 14.8123 103.391 14.4275 103.391 13.9598ZM107.796 12.5179V17.019H106.646V9.53657H107.757V10.7057H107.854C108.03 10.3257 108.296 10.0205 108.653 9.78988C109.01 9.55605 109.471 9.43914 110.037 9.43914C110.543 9.43914 110.986 9.54306 111.366 9.75091C111.746 9.95551 112.042 10.2673 112.253 10.6862C112.464 11.1019 112.57 11.628 112.57 12.2646V17.019H111.42V12.3425C111.42 11.7547 111.267 11.2968 110.962 10.9688C110.657 10.6375 110.238 10.4719 109.705 10.4719C109.338 10.4719 109.01 10.5514 108.721 10.7106C108.435 10.8697 108.21 11.1019 108.044 11.4072C107.878 11.7125 107.796 12.0827 107.796 12.5179Z" fill="#F3F3F3"/>
<defs>
<linearGradient id="paint0_linear_458_2" x1="16.2243" y1="1.71168" x2="5.65655" y2="14.2891" gradientUnits="userSpaceOnUse">
<stop stop-color="#FFC300"/>
<stop offset="1" stop-color="#FF007B"/>
</linearGradient>
<linearGradient id="paint1_linear_458_2" x1="17.5295" y1="10.9968" x2="15.894" y2="13.3773" gradientUnits="userSpaceOnUse">
<stop stop-color="#FFC300"/>
<stop offset="1" stop-color="#FF007B"/>
</linearGradient>
</defs>
</svg>
